<mxfile host="app.diagrams.net" modified="2023-10-16T01:01:58.632Z" agent="Mozilla/5.0 (Windows NT 10.0; Win64; x64; rv:109.0) Gecko/20100101 Firefox/118.0" etag="Yhk82Q4ZwG2v-Cza0QOp" version="22.0.4" type="github">
  <diagram id="C5RBs43oDa-KdzZeNtuy" name="Page-1">
    <mxGraphModel dx="1114" dy="602" grid="1" gridSize="10" guides="1" tooltips="1" connect="1" arrows="1" fold="1" page="1" pageScale="1" pageWidth="827" pageHeight="1169" math="0" shadow="0">
      <root>
        <mxCell id="WIyWlLk6GJQsqaUBKTNV-0" />
        <mxCell id="WIyWlLk6GJQsqaUBKTNV-1" parent="WIyWlLk6GJQsqaUBKTNV-0" />
        <mxCell id="bAwlZJXYRA-vvfj2mUHh-5" style="edgeStyle=orthogonalEdgeStyle;rounded=0;orthogonalLoop=1;jettySize=auto;html=1;entryX=0.5;entryY=0;entryDx=0;entryDy=0;" edge="1" parent="WIyWlLk6GJQsqaUBKTNV-1" source="WIyWlLk6GJQsqaUBKTNV-3" target="bAwlZJXYRA-vvfj2mUHh-2">
          <mxGeometry relative="1" as="geometry" />
        </mxCell>
        <mxCell id="WIyWlLk6GJQsqaUBKTNV-3" value="start" style="rounded=1;whiteSpace=wrap;html=1;fontSize=12;glass=0;strokeWidth=1;shadow=0;" parent="WIyWlLk6GJQsqaUBKTNV-1" vertex="1">
          <mxGeometry x="360" y="10" width="120" height="40" as="geometry" />
        </mxCell>
        <mxCell id="bAwlZJXYRA-vvfj2mUHh-6" style="edgeStyle=orthogonalEdgeStyle;rounded=0;orthogonalLoop=1;jettySize=auto;html=1;entryX=0.5;entryY=0;entryDx=0;entryDy=0;" edge="1" parent="WIyWlLk6GJQsqaUBKTNV-1" source="bAwlZJXYRA-vvfj2mUHh-2" target="bAwlZJXYRA-vvfj2mUHh-3">
          <mxGeometry relative="1" as="geometry" />
        </mxCell>
        <mxCell id="bAwlZJXYRA-vvfj2mUHh-2" value="insteger bilangan" style="shape=internalStorage;whiteSpace=wrap;html=1;backgroundOutline=1;dx=10;dy=10;" vertex="1" parent="WIyWlLk6GJQsqaUBKTNV-1">
          <mxGeometry x="350" y="110" width="140" height="40" as="geometry" />
        </mxCell>
        <mxCell id="bAwlZJXYRA-vvfj2mUHh-7" value="" style="edgeStyle=orthogonalEdgeStyle;rounded=0;orthogonalLoop=1;jettySize=auto;html=1;" edge="1" parent="WIyWlLk6GJQsqaUBKTNV-1" source="bAwlZJXYRA-vvfj2mUHh-3" target="bAwlZJXYRA-vvfj2mUHh-4">
          <mxGeometry relative="1" as="geometry" />
        </mxCell>
        <mxCell id="bAwlZJXYRA-vvfj2mUHh-3" value="input bilangan" style="shape=parallelogram;perimeter=parallelogramPerimeter;whiteSpace=wrap;html=1;fixedSize=1;" vertex="1" parent="WIyWlLk6GJQsqaUBKTNV-1">
          <mxGeometry x="320" y="190" width="200" height="40" as="geometry" />
        </mxCell>
        <mxCell id="bAwlZJXYRA-vvfj2mUHh-8" style="edgeStyle=orthogonalEdgeStyle;rounded=0;orthogonalLoop=1;jettySize=auto;html=1;" edge="1" parent="WIyWlLk6GJQsqaUBKTNV-1" source="bAwlZJXYRA-vvfj2mUHh-4">
          <mxGeometry relative="1" as="geometry">
            <mxPoint x="600" y="390" as="targetPoint" />
          </mxGeometry>
        </mxCell>
        <mxCell id="bAwlZJXYRA-vvfj2mUHh-9" style="edgeStyle=orthogonalEdgeStyle;rounded=0;orthogonalLoop=1;jettySize=auto;html=1;" edge="1" parent="WIyWlLk6GJQsqaUBKTNV-1" source="bAwlZJXYRA-vvfj2mUHh-4">
          <mxGeometry relative="1" as="geometry">
            <mxPoint x="240" y="390" as="targetPoint" />
          </mxGeometry>
        </mxCell>
        <mxCell id="bAwlZJXYRA-vvfj2mUHh-4" value="bil mod 2 == 0" style="rhombus;whiteSpace=wrap;html=1;" vertex="1" parent="WIyWlLk6GJQsqaUBKTNV-1">
          <mxGeometry x="312.5" y="280" width="215" height="80" as="geometry" />
        </mxCell>
        <mxCell id="bAwlZJXYRA-vvfj2mUHh-12" style="edgeStyle=orthogonalEdgeStyle;rounded=0;orthogonalLoop=1;jettySize=auto;html=1;" edge="1" parent="WIyWlLk6GJQsqaUBKTNV-1">
          <mxGeometry relative="1" as="geometry">
            <mxPoint x="430" y="610" as="targetPoint" />
            <mxPoint x="240" y="450" as="sourcePoint" />
            <Array as="points">
              <mxPoint x="240" y="520" />
              <mxPoint x="430" y="520" />
              <mxPoint x="430" y="600" />
            </Array>
          </mxGeometry>
        </mxCell>
        <mxCell id="bAwlZJXYRA-vvfj2mUHh-10" value="&lt;div&gt;output bilangan&amp;nbsp;&lt;/div&gt;&lt;div&gt;ganjil&lt;/div&gt;" style="shape=parallelogram;perimeter=parallelogramPerimeter;whiteSpace=wrap;html=1;fixedSize=1;" vertex="1" parent="WIyWlLk6GJQsqaUBKTNV-1">
          <mxGeometry x="150" y="390" width="180" height="60" as="geometry" />
        </mxCell>
        <mxCell id="bAwlZJXYRA-vvfj2mUHh-13" style="edgeStyle=orthogonalEdgeStyle;rounded=0;orthogonalLoop=1;jettySize=auto;html=1;" edge="1" parent="WIyWlLk6GJQsqaUBKTNV-1" source="bAwlZJXYRA-vvfj2mUHh-11">
          <mxGeometry relative="1" as="geometry">
            <mxPoint x="430" y="520" as="targetPoint" />
            <Array as="points">
              <mxPoint x="595" y="487" />
              <mxPoint x="596" y="487" />
            </Array>
          </mxGeometry>
        </mxCell>
        <mxCell id="bAwlZJXYRA-vvfj2mUHh-11" value="&lt;div&gt;output bilangan &lt;br&gt;&lt;/div&gt;&lt;div&gt;genap&lt;br&gt;&lt;/div&gt;" style="shape=parallelogram;perimeter=parallelogramPerimeter;whiteSpace=wrap;html=1;fixedSize=1;" vertex="1" parent="WIyWlLk6GJQsqaUBKTNV-1">
          <mxGeometry x="500" y="390" width="190" height="60" as="geometry" />
        </mxCell>
        <mxCell id="bAwlZJXYRA-vvfj2mUHh-16" value="end" style="rounded=1;whiteSpace=wrap;html=1;" vertex="1" parent="WIyWlLk6GJQsqaUBKTNV-1">
          <mxGeometry x="370" y="610" width="120" height="60" as="geometry" />
        </mxCell>
      </root>
    </mxGraphModel>
  </diagram>
</mxfile>
